<svg xmlns="http://www.w3.org/2000/svg" xmlns:xlink="http://www.w3.org/1999/xlink" width="20" height="640" viewBox="0 0 20 169.3312"><use fill="#666" xlink:href="#path1721" id="a" width="100%" height="100%" transform="translate(0 4)"/><use fill="#666" xlink:href="#a" transform="translate(0 4)" width="100%" height="100%"/><path fill="#595959" style="line-height:1.25;-inkscape-font-specification:'Source Sans Pro Bold'" d="M4.404 311.796c-2.93 1.21-3.165 5.658-.797 5.739.744 0 1.28-.493 1.28-1.364 0-.7-.519-1.269-1.448-1.197 0-.844.326-1.485 1.5-2.111zm4 0c-2.93 1.21-3.165 5.658-.797 5.739.744 0 1.28-.493 1.28-1.364 0-.7-.519-1.269-1.448-1.197 0-.844.326-1.485 1.5-2.111zm3.989 0c-.744 0-1.28.493-1.28 1.364 0 .7.519 1.269 1.448 1.197 0 .844-.326 1.485-1.5 2.111l.535 1.067c2.93-1.21 3.165-5.658.797-5.739zm4 0c-.744 0-1.28.493-1.28 1.364 0 .7.519 1.269 1.448 1.197 0 .844-.326 1.485-1.5 2.111l.535 1.067c2.93-1.21 3.165-5.658.797-5.739zm-2.928 16c-2.931 1.21-3.166 5.658-.797 5.739.744 0 1.28-.493 1.28-1.364 0-.7-.519-1.269-1.448-1.197 0-.844.326-1.485 1.5-2.111zm4 0c-2.931 1.21-3.166 5.658-.797 5.739.744 0 1.28-.493 1.28-1.364 0-.7-.519-1.269-1.448-1.197 0-.844.326-1.485 1.5-2.111zm-14.133 8c-.744 0-1.28.493-1.28 1.364 0 .7.519 1.269 1.448 1.197 0 .844-.326 1.485-1.5 2.111l.535 1.067c2.931-1.21 3.166-5.658.797-5.739zm4 0c-.744 0-1.28.493-1.28 1.364 0 .7.519 1.269 1.448 1.197 0 .844-.326 1.485-1.5 2.111l.535 1.067c2.931-1.21 3.166-5.658.797-5.739zm8.193 12.001c-2.93 1.21-3.165 5.658-.796 5.739.744 0 1.279-.493 1.279-1.364 0-.7-.518-1.269-1.447-1.197 0-.844.326-1.485 1.5-2.111zm-10.254 7.998c-.744 0-1.279.493-1.279 1.364 0 .7.518 1.269 1.447 1.197 0 .844-.326 1.485-1.5 2.111l.536 1.067c2.93-1.21 3.165-5.658.796-5.739zm.224 16.001c-2.93 1.21-3.165 5.658-.797 5.739.744 0 1.28-.493 1.28-1.364 0-.7-.519-1.269-1.448-1.197 0-.844.326-1.485 1.5-2.111zm9.807 0c-.744 0-1.28.493-1.28 1.364 0 .7.519 1.269 1.448 1.197 0 .844-.326 1.485-1.5 2.111l.535 1.067c2.93-1.21 3.165-5.658.797-5.739z"/><path d="M11.958 147.826a.83.83 0 0 0-.747.566l-4 12c-.381 1.066 1.243 1.605 1.575.523l4-12a.83.83 0 0 0-.827-1.09zm-5.823 3a.83.83 0 0 0-.551.242l-3.586 3.585 3.586 3.588c.782.748 1.921-.39 1.174-1.173l-2.412-2.413 2.412-2.414c.535-.536.133-1.45-.623-1.416zm7.656 0a.83.83 0 0 0-.55 1.415l2.413 2.414-2.414 2.413c-.747.782.392 1.92 1.174 1.173l3.588-3.588-3.588-3.585a.83.83 0 0 0-.623-.243z" style="line-height:normal;font-variant-ligatures:normal;font-variant-position:normal;font-variant-caps:normal;font-variant-numeric:normal;font-variant-alternates:normal;font-variant-east-asian:normal;font-feature-settings:normal;font-variation-settings:normal;text-indent:0;text-align:start;text-decoration-line:none;text-decoration-style:solid;text-decoration-color:#000;text-transform:none;text-orientation:mixed;shape-padding:0;shape-margin:0;inline-size:0;isolation:auto;mix-blend-mode:normal" color="#000" font-weight="400" font-family="sans-serif" white-space="normal" overflow="visible" fill="#595959"/><path fill="#595959" d="M4.999 166.666c-1.638 0-3 1.31-3 3v2.4a.6.6 0 0 0 .6.6.6.6 0 0 0 .6-.6v-2.4c0-1.07.774-1.8 1.8-1.8h2.4a.6.6 0 0 0 .6-.6.6.6 0 0 0-.6-.6zm7.602 0a.6.6 0 0 0-.6.6.6.6 0 0 0 .6.6h2.4c1.026 0 1.799.73 1.799 1.8v2.4a.6.6 0 0 0 .601.6.6.6 0 0 0 .6-.6v-2.4c0-1.69-1.362-3-3-3zm-1.1 2.604a.6.6 0 0 0-.574.422l-3 9.6a.59.59 0 0 0 .394.75.635.635 0 0 0 .752-.393l3-9.6a.602.602 0 0 0-.572-.78zm-4.5 2.41a.598.598 0 0 0-.424.176l-2.402 2.4a.6.6 0 0 0 0 .848l2.398 2.402c.208.208.666.185.85 0a.602.602 0 0 0 0-.85l-1.975-1.974 1.977-1.976a.602.602 0 0 0-.424-1.026zm6 0a.6.6 0 0 0-.426 1.023l1.975 1.975-1.977 1.977a.6.6 0 0 0 0 .847c.184.185.64.208.848 0l2.4-2.398a.598.598 0 0 0 .002-.848l-2.398-2.4a.597.597 0 0 0-.424-.176zm-10.402 4.986a.6.6 0 0 0-.6.6v2.4c0 1.69 1.362 3 3 3h2.4a.6.6 0 0 0 .6-.601.6.6 0 0 0-.6-.6h-2.4c-1.026 0-1.8-.728-1.8-1.8v-2.4a.6.6 0 0 0-.6-.6zm14.8 0a.6.6 0 0 0-.601.6v2.4c0 1.07-.773 1.8-1.799 1.8h-2.4a.6.6 0 0 0-.6.599.6.6 0 0 0 .6.6h2.4c1.638 0 3-1.31 3-3v-2.4a.6.6 0 0 0-.6-.6z"/><path fill="#595959" font-family="Source Sans Pro" font-size="16.037" font-weight="400" style="line-height:1.25;-inkscape-font-specification:'Source Sans Pro'" d="M8.388-106.104l-.978 1.892h2.758v-5.324h-.064c-.568 1.146-1.14 2.29-1.716 3.432zm-4.522 6.03l5.517-10.52h6.59v1.122h-4.458v3.304h3.721v1.138h-3.72v3.817h4.618v1.138h-5.966v-3.063H6.865l-1.588 3.063z"/><path d="M13.143 107.854c-.924.022-1.815.386-2.435 1.006l-.666.555a.83.83 0 0 0 1.062 1.275c.241-.195.49-.411.721-.607a1.955 1.955 0 0 1 2.783 0 1.953 1.953 0 0 1 0 2.78l-.004.005-2.363 2.385c-.843.843-2.082.703-2.785 0a.83.83 0 0 0-1.172 1.174c1.447 1.446 3.73 1.356 5.129 0l.004-.002a41.02 41.02 0 0 0 2.545-2.66c1.177-1.42 1.147-3.527-.182-4.856a3.578 3.578 0 0 0-2.637-1.054zm-4.01 4a3.73 3.73 0 0 0-2.546 1.05l-.004.003a41.02 41.02 0 0 0-2.545 2.66c-1.177 1.42-1.147 3.527.182 4.856 1.506 1.506 3.832 1.289 5.072.049l.666-.555a.83.83 0 0 0-1.063-1.275c-.24.195-.488.41-.72.607a1.955 1.955 0 0 1-2.784 0 1.953 1.953 0 0 1 0-2.781l.004-.004 2.364-2.385c.843-.844 2.082-.703 2.785 0a.83.83 0 0 0 1.172-1.174 3.562 3.562 0 0 0-2.582-1.05z" style="line-height:normal;font-variant-ligatures:normal;font-variant-position:normal;font-variant-caps:normal;font-variant-numeric:normal;font-variant-alternates:normal;font-variant-east-asian:normal;font-feature-settings:normal;font-variation-settings:normal;text-indent:0;text-align:start;text-decoration-line:none;text-decoration-style:solid;text-decoration-color:#000;text-transform:none;text-orientation:mixed;shape-padding:0;shape-margin:0;inline-size:0;isolation:auto;mix-blend-mode:normal" fill="#595959"/><path d="M8.67 127.915c-1.633 2.7-1.552 5.605 0 8.16l.963-.39c-1.304-2.402-1.128-5.305 0-7.377zm7.648 0l-.963.393c1.32 2.428 1.076 5.454 0 7.377l.963.39c1.635-2.702 1.53-5.607 0-8.16zm-4.02.91c-.458.314-1.037.473-1.478.551v.946h1.07v2.922h-1.212v1.228h3.76v-1.228h-1.016v-4.42H12.3zm-7.304 10.09c-1.412 0-1.36 1.5-2 1.5a.5.5 0 0 0 0 1c1.423 0 1.256-1.5 2-1.5.76 0 .48 1.501 2 1.501 1.48 0 1.301-1.5 2-1.5.795 0 .494 1.5 2 1.5 1.51 0 1.294-1.5 2-1.5.735 0 .597 1.5 2 1.5a.5.5 0 0 0 0-1c-.616 0-.595-1.5-2-1.5-1.488 0-1.249 1.5-2 1.5-.76 0-.507-1.5-2-1.5-1.48 0-1.259 1.5-2 1.5-.684 0-.562-1.5-2-1.5z" style="line-height:1.25;-inkscape-font-specification:'Source Sans Pro Heavy'" font-weight="900" font-size="8.909" font-family="Source Sans Pro" fill="#595959"/><path fill="#595959" font-family="Source Sans Pro" font-size="16.037" font-weight="400" style="line-height:1.25;-inkscape-font-specification:'Source Sans Pro'" d="M9.102 19.926c-3.07 0-5.084-1.9-5.084-5.308 0-3.69 2.188-5.212 5.148-5.212h6.655v1.123h-4.458v3.304h3.72v1.138h-3.72v3.817h4.619v1.138zm.16-1.09h.77v-8.34h-.77c-2.969 0-3.844 1.937-3.865 4.122 0 2.563 1.237 4.218 3.865 4.218z"/><path d="M2.982 250.665v8a.83.83 0 0 0 1.393.612l4.34-4a.83.83 0 0 0 0-1.22l-4.34-4c-.785-.475-1.393-.107-1.393.608zm5.5-.83c-1.107 0-1.107 1.66 0 1.66h7.67c1.107 0 1.107-1.66 0-1.66zm2.5 4c-1.107 0-1.107 1.66 0 1.66h5.205c1.107 0 1.107-1.66 0-1.66zm-2.5 4c-1.107 0-1.107 1.66 0 1.66h7.705c1.107 0 1.107-1.66 0-1.66zM4.5 209.166a1.5 1.5 0 0 0-1.5 1.5 1.5 1.5 0 0 0 1.5 1.5 1.5 1.5 0 0 0 1.5-1.5 1.5 1.5 0 0 0-1.5-1.5zm4.334.67a.83.83 0 0 0-.83.83.83.83 0 0 0 .83.83h7.336a.83.83 0 0 0 .83-.83.83.83 0 0 0-.83-.83zm-4.334 3.33a1.5 1.5 0 0 0-1.5 1.5 1.5 1.5 0 0 0 1.5 1.5 1.5 1.5 0 0 0 1.5-1.5 1.5 1.5 0 0 0-1.5-1.5zm4.334.67a.83.83 0 0 0-.83.83.83.83 0 0 0 .83.83h7.336a.83.83 0 0 0 .83-.83.83.83 0 0 0-.83-.83zm-4.334 3.33a1.5 1.5 0 0 0-1.5 1.5 1.5 1.5 0 0 0 1.5 1.5 1.5 1.5 0 0 0 1.5-1.5 1.5 1.5 0 0 0-1.5-1.5zm4.334.67a.83.83 0 0 0-.83.83.83.83 0 0 0 .83.83h7.336a.83.83 0 0 0 .83-.83.83.83 0 0 0-.83-.83zm-4.794 9.948c-.295.196-.72.298-1.08.348v.546h.844v2.202H2.78v.714h2.77v-.714h-.863v-3.096zm4.573 1.98a.83.83 0 1 0 0 1.66h8a.83.83 0 1 0 0-1.66zM2.611 233.2l.475.475c.623-.623 1.39-.444 1.39.185 0 .68-1.12 1.514-1.824 2.113v.504h2.863v-.744a17.108 17.108 0 0 0-1.595.047c.592-.537 1.398-1.22 1.398-1.975 0-1.393-1.91-1.6-2.707-.605zm6.002.564a.83.83 0 1 0 0 1.66h8a.83.83 0 1 0 0-1.66zm-5.948 4.317l.444.539c.613-.53 1.373-.367 1.373.084 0 .5-.603.446-1.025.51v.625c.695-.015 1.152.147 1.152.545 0 .556-1.115.602-1.644.066l-.409.559c.406.438.924.539 1.422.539.81 0 1.514-.384 1.514-1.11 0-.586-.412-.791-.854-.953.502-.193.726-.452.726-.846 0-1.257-1.934-1.304-2.699-.558zm5.948-.487a.83.83 0 1 0 0 1.66h8a.83.83 0 1 0 0-1.66z" style="line-height:normal;font-variant-ligatures:normal;font-variant-position:normal;font-variant-caps:normal;font-variant-numeric:normal;font-variant-alternates:normal;font-variant-east-asian:normal;font-feature-settings:normal;font-variation-settings:normal;text-indent:0;text-align:start;text-decoration-line:none;text-decoration-style:solid;text-decoration-color:#000;text-transform:none;text-orientation:mixed;shape-padding:0;shape-margin:0;inline-size:0;isolation:auto;mix-blend-mode:normal" color="#000" font-weight="400" font-family="sans-serif" white-space="normal" overflow="visible" fill="#595959"/><path fill="#595959" font-family="Arca Majora" font-size="15.19" font-weight="900" d="M10.229-171.334c-1.39 0-3.282 1.138-3.282 3.386 0 .993.196 1.202.473 1.684h3.266c-.812-.399-1.916-.88-1.916-1.684 0-1.809 2.439-1.888 2.916-.5l1.716-.79c-.673-1.46-1.784-2.096-3.173-2.096zm-6.413 5.57a.83.83 0 0 0 .014 1.66h6.666c.685.388 1.205.756 1.205 1.383 0 .81-.744 1.29-1.533 1.457-.92.194-1.839-.512-2.174-1.428l-1.67.744c.647 1.731 1.92 2.614 3.494 2.614 2.069 0 3.858-1.266 3.858-3.387 0-.541-.105-1-.305-1.383h2.799a.83.83 0 0 0 .002-1.66H3.83a.26.26 0 0 1-.014 0z" style="line-height:1.25;-inkscape-font-specification:'Arca Majora Heavy'"/><path fill="#595959" font-family="Source Sans Pro" font-size="16.037" font-weight="400" style="line-height:1.25;-inkscape-font-specification:'Source Sans Pro'" d="M6.769-81.244c-.663 0-1.214-.193-1.652-.578-.428-.385-.642-.93-.642-1.635 0-.855.38-1.508 1.139-1.957.76-.46 1.951-.78 3.576-.962 0-.246-.021-.487-.064-.722a1.547 1.547 0 0 0-.257-.625 1.253 1.253 0 0 0-.48-.433c-.203-.117-.465-.176-.786-.176-.428 0-.835.085-1.22.256-.364.16-.713.353-1.042.577l-.529-.914a8.368 8.368 0 0 1 1.315-.673 4.036 4.036 0 0 1 1.636-.337c.577 0 1.053.15 1.427.45.374.288.641.689.802 1.202.31-.513.679-.914 1.107-1.203.438-.3.924-.45 1.459-.45.481 0 .904.087 1.267.258.374.17.684.416.93.737.257.32.449.71.577 1.17.129.45.193.953.193 1.508 0 .3-.016.546-.048.738h-5.052c.01.407.08.776.208 1.107.14.33.316.615.53.85a2.24 2.24 0 0 0 1.683.737c.345.005.687-.055 1.01-.176.3-.128.594-.283.883-.465l.48.914a6.91 6.91 0 0 1-1.122.56c-.406.16-.876.24-1.41.24-.653 0-1.199-.143-1.637-.431a4.882 4.882 0 0 1-1.106-1.027c-.535.48-1.075.845-1.62 1.09-.535.247-1.053.37-1.555.37zm.368-1.06c.364 0 .76-.1 1.187-.303a4.04 4.04 0 0 0 1.17-.898 3.747 3.747 0 0 1-.208-.722 6.03 6.03 0 0 1-.096-.882v-.401c-.535.068-1.065.17-1.587.305-.37.094-.725.234-1.059.417-.267.16-.464.347-.593.56a1.32 1.32 0 0 0-.177.675c0 .449.128.77.385.962.267.192.593.288.978.288zm3.288-3.591h3.945c0-.802-.16-1.417-.481-1.844-.31-.428-.764-.642-1.363-.642-.545 0-1.016.225-1.411.674-.385.439-.615 1.043-.69 1.812zM8.396-62.664h3.16L10-67.812h-.064zm-2.71 4.28l3.56-10.52h1.508l3.56 10.52h-1.427l-.995-3.206H8.06l-1.01 3.207zm4.57-11.176l-2.437-1.844.754-.882 2.277 2.052zM6.889-18.382v-10.52h6.062v1.122H8.22v3.303h3.993v1.139H8.22v3.817h4.891v1.138zM9.727-29.56l-.593-.674 2.277-2.052.754.882zM6.889 1.618v-10.52h6.062v1.122H8.22v3.303h3.993v1.139H8.22V.479h4.891v1.138zM10.273-9.56l-2.438-1.844.754-.882 2.277 2.052zM7.442 38.755c-2.235 0-3.496-1.884-3.496-4.074 0-2.356 1.429-4.105 3.528-4.105 1.446 0 2.39.934 2.822 1.957.618-1.26 1.605-1.957 2.743-1.957 2.284 0 3.015 1.892 3.015 3.672 0 .3-.016.546-.048.738H10.89c.045 1.56 1.1 2.694 2.454 2.694.747 0 1.39-.314 1.924-.64l.481.913c-.754.52-1.65.8-2.566.8-1.362 0-2.227-.785-2.87-1.94-.54 1.133-1.333 1.942-2.871 1.942zm.032-1.09c1.54 0 2.181-1.628 2.181-2.984-.025-1.63-.755-3.014-2.181-3.014-1.48 0-2.18 1.554-2.18 3.014 0 1.47.662 2.984 2.18 2.984zm3.416-3.56h4.01c-.017-1.548-.642-2.487-1.893-2.487-1.277 0-2.07 1.342-2.117 2.486z"/><path d="M3.848 269.853c-1.107 0-1.107 1.66 0 1.66h7.67c1.107 0 1.107-1.66 0-1.66zm11.778.22l-4.34 4a.83.83 0 0 0 0 1.22l4.34 4a.83.83 0 0 0 1.392-.61v-8c0-.772-.85-1.152-1.392-.61zm-11.813 3.78c-1.107 0-1.107 1.66 0 1.66h5.205c1.107 0 1.107-1.66 0-1.66zm0 4c-1.107 0-1.107 1.66 0 1.66h7.705c1.107 0 1.107-1.66 0-1.66z" style="line-height:normal;font-variant-ligatures:normal;font-variant-position:normal;font-variant-caps:normal;font-variant-numeric:normal;font-variant-alternates:normal;font-variant-east-asian:normal;font-feature-settings:normal;font-variation-settings:normal;text-indent:0;text-align:start;text-decoration-line:none;text-decoration-style:solid;text-decoration-color:#000;text-transform:none;text-orientation:mixed;shape-padding:0;shape-margin:0;inline-size:0;isolation:auto;mix-blend-mode:normal" color="#000" font-weight="400" font-family="sans-serif" white-space="normal" overflow="visible" fill="#666"/><path fill="#595959" d="M10 390.351c-2.684 0-5.971 1.232-8 4.82l1.493.86c.964-1.76 2.166-2.604 3.45-3.216-.486.648-.827 1.413-.827 2.283A3.889 3.889 0 0 0 10 398.98a3.888 3.888 0 0 0 3.882-3.882c0-.854-.324-1.619-.799-2.264 1.332.703 2.405 1.362 3.419 3.194l1.498-.864c-1.997-3.65-5.399-4.813-8-4.813zm-.012 2.546a2.19 2.19 0 1 1-.001 4.379 2.19 2.19 0 0 1 .001-4.38zm.012.88a1.333 1.333 0 1 0 0 2.666 1.333 1.333 0 0 0 0-2.666z"/><path fill="#595959" d="M10 186.666c-4.411 0-8 3.588-8 8 0 4.41 3.589 8 8 8 4.775 0 8-3.997 8-8 0-4.46-3.648-8-8-8zm0 1.199c.539 0 1.06.07 1.563.187L7.28 200.898a6.787 6.787 0 0 1-4.082-6.232 6.792 6.792 0 0 1 6.801-6.801zm2.715.564a6.79 6.79 0 0 1 4.086 6.237 6.79 6.79 0 0 1-8.37 6.61zm-5.54 3.43a.607.607 0 0 0-.402.178l-2.62 2.619 2.62 2.623c.572.547 1.404-.286.858-.858l-1.764-1.763 1.764-1.764a.607.607 0 0 0-.455-1.035zm5.596 0a.607.607 0 0 0-.402 1.035l1.764 1.764-1.766 1.763c-.546.572.288 1.404.86.858l2.62-2.623-2.62-2.62a.607.607 0 0 0-.456-.177z" style="line-height:normal;font-variant-ligatures:normal;font-variant-position:normal;font-variant-caps:normal;font-variant-numeric:normal;font-variant-alternates:normal;font-variant-east-asian:normal;font-feature-settings:normal;font-variation-settings:normal;text-indent:0;text-align:start;text-decoration-line:none;text-decoration-style:solid;text-decoration-color:#000;text-transform:none;text-orientation:mixed;shape-padding:0;shape-margin:0;inline-size:0;isolation:auto;mix-blend-mode:normal"/><path style="line-height:1.25;-inkscape-font-specification:'Source Sans Pro'" d="M12.756-153.334L9.07-142.446h1.412l1.047-3.32h3.965l1.03 3.32H18l-3.684-10.888zm.713 1.127h.066c.176.63.354 1.25.531 1.859.177.597.368 1.199.567 1.809l.513 1.66h-3.269l.516-1.66h-.002c.199-.61.387-1.212.564-1.81.177-.608.348-1.228.514-1.858zm-8.024 1.664c-1.196 0-2.167.447-3.103 1.021l.52.926c.69-.477 1.543-.844 2.357-.844 1.264 0 1.627.923 1.627 1.986C4.51-147.22 2-146.677 2-144.5c0 1.498 1.003 2.248 2.309 2.248 1.052 0 1.958-.575 2.666-1.139l.113.941h1.105v-4.847c0-2.095-.898-3.246-2.748-3.246zm1.4 3.966v2.194c-.544.56-1.34 1.056-2.146 1.056-.919 0-1.398-.53-1.398-1.267 0-1.507 2.213-1.77 3.545-1.983zm4.956 4.243v1.9H2.83a.6.6 0 0 0-.6.6.6.6 0 0 0 .6.6h8.97v1.9l6.199-2.5z" fill="#595959"/><path d="M13.49-199.579a5.129 5.129 0 0 1-3.402 1.245c-4.196 0-6.709-3.304-6.709-7.117 0-3.978 3.252-6.857 7.078-6.883 2.442.024 4.494 1.04 5.639 3.014l-2.82 2.158c-.691-1.218-1.755-1.79-2.955-1.808-1.873-.03-3.092 1.717-3.092 3.655 0 2.143 1.296 3.617 3.19 3.617 1.1 0 2.073-.454 2.916-1.361h-2.392v-2.723h5.678v7.35h-3.13z" style="line-height:1.25;-inkscape-font-specification:'Raleway Heavy'" font-weight="900" font-size="19.444" font-family="Raleway" fill="#595959"/><path style="line-height:1.25;-inkscape-font-specification:'Source Sans Pro'" d="M5.686-133.334L2-122.446h1.412l1.047-3.32h3.965l1.03 3.32h1.476l-3.684-10.888zm.712 1.127h.067c.176.63.354 1.25.531 1.859.177.597.367 1.199.566 1.809l.514 1.66h-3.27l.516-1.66H5.32c.2-.61.388-1.212.565-1.81.177-.608.348-1.228.513-1.858zm8.854 1.664c-1.196 0-2.167.447-3.104 1.021l.52.926c.691-.477 1.543-.844 2.357-.844 1.265 0 1.627.923 1.627 1.986-2.336.233-4.845.777-4.845 2.954 0 1.498 1.003 2.248 2.308 2.248 1.053 0 1.96-.575 2.666-1.139l.114.941H18v-4.847c0-2.095-.898-3.246-2.748-3.246zm1.4 3.966v2.194c-.544.56-1.34 1.056-2.146 1.056-.919 0-1.399-.53-1.399-1.267 0-1.507 2.214-1.77 3.545-1.983zm-4.851 4.243v1.9H2.83a.6.6 0 0 0-.6.6.6.6 0 0 0 .6.6h8.97v1.9l6.199-2.5z" fill="#595959"/><g style="line-height:1.25;-inkscape-font-specification:'Source Code Pro'"><path d="M8.23-230.074H3.924v-2.26h11.522v2.26h-4.283v11.74H8.229z" style="-inkscape-font-specification:'Kanit Medium'" font-weight="500" font-family="Kanit" font-size="21.739" fill="#595959"/></g><path d="M5.714 69.523A3.717 3.717 0 0 0 2 73.237a3.707 3.707 0 0 0 3.077 3.66c.097 1.308-.983 2.41-.995 2.422a.286.286 0 0 0 .278.478c5.185-1.44 5.077-6.3 5.068-6.565a3.72 3.72 0 0 0-3.714-3.708zm8.57 0a3.717 3.717 0 0 0-3.713 3.714 3.707 3.707 0 0 0 3.076 3.66c.098 1.308-.983 2.41-.994 2.422a.286.286 0 0 0 .203.489.245.245 0 0 0 .074-.011c5.186-1.44 5.077-6.3 5.069-6.565a3.72 3.72 0 0 0-3.714-3.708z" fill="#595959"/><path d="M13.39 88.668c-3.986.115-6.568 3.03-6.85 6.61-2.133.11-3.689 1.053-3.689 2.973 0 1.568 1.678 2.415 3.229 2.415 3.347 0 5.421-1.758 6.36-4.351 2.643-.358 4.709-2.377 4.709-4.668 0-2.06-1.96-3.031-3.76-2.98zm-.665.943c.405 0 .82.054 1.233.173-1.87 1.419-2.436 3.344-2.877 5.294-.655 2.898-2.322 4.893-4.872 4.893-.915 0-2.61-.421-2.61-1.714 0-1.302 1.764-1.86 2.964-1.916.086.671.253 1.412.551 1.866l.642-.196c-.23-.572-.338-1.054-.431-1.65.704.046 1.33.323 1.808.613l.451-.692c-.739-.51-1.6-.84-2.341-.966.157-2.95 2.644-5.7 5.482-5.705zm2.016.586c.811.356.985 1.139.931 1.957-.109 1.67-1.667 3.421-3.053 3.47.157-1.137.397-2.193.75-3.139v-.003c.363-.959.828-1.706 1.372-2.285z" style="line-height:1.25;-inkscape-font-specification:'Niconne Bold'" font-weight="700" font-size="16.684" font-family="Niconne" fill="#595959"/><path style="line-height:normal;font-variant-ligatures:normal;font-variant-position:normal;font-variant-caps:normal;font-variant-numeric:normal;font-variant-alternates:normal;font-variant-east-asian:normal;font-feature-settings:normal;font-variation-settings:normal;text-indent:0;text-align:start;text-decoration-line:none;text-decoration-style:solid;text-decoration-color:#000;text-transform:none;text-orientation:mixed;shape-padding:0;shape-margin:0;inline-size:0;isolation:auto;mix-blend-mode:normal" d="M5.443 291.476a.691.691 0 0 0-.459.203l-2.986 2.985 2.986 2.988c.652.623 1.601-.325.979-.977l-2.01-2.01 2.01-2.01a.691.691 0 0 0-.52-1.179zm3.332 0a.691.691 0 0 0-.459.203l-2.986 2.985 2.986 2.988c.652.623 1.601-.325.979-.977l-2.01-2.01 2.01-2.01a.691.691 0 0 0-.52-1.179zm2.448 0c-.63-.028-.965.733-.52 1.18l2.01 2.01-2.01 2.01c-.622.65.327 1.599.979.976l2.986-2.988-2.986-2.985a.691.691 0 0 0-.46-.203zm3.332 0c-.63-.028-.965.733-.52 1.18l2.01 2.01-2.01 2.01c-.622.65.327 1.599.979.976L18 294.664l-2.986-2.985a.691.691 0 0 0-.46-.203z" fill="#595959"/><path fill="#595959" d="M10.762-52.502c-3.024 0-4.666 2.527-4.666 5.45 0 2.807 1.396 5.253 4.246 5.446 0 0-.389.821-.59 1.227.49.101 1.234.144 1.234.77 0 .623-.84.695-1.748.802l.13.64c1.01-.092 2.646-.21 2.646-1.458 0-.62-.36-.949-1.172-1.14l.37-.857c1.164-.169 1.846-.582 2.692-1.5l-.736-.833c-.604.677-1.376 1.187-2.438 1.187-2.194 0-3.255-1.976-3.255-4.314 0-2.065.989-4.25 3.302-4.25.802 0 1.526.325 2.15.994l.721-.866c-.745-.752-1.628-1.298-2.886-1.298z" style="line-height:1.25;-inkscape-font-specification:'Source Sans Pro'"/><path d="M3.4 46.666c-.768 0-1.4.632-1.4 1.4v13.2c0 .769.632 1.4 1.4 1.4h13.2c.768 0 1.4-.631 1.4-1.4v-13.2c0-.768-.632-1.4-1.4-1.4zm0 .8H4v12.019c0 .178.046.345.117.498l-1.31 1.31c-.012-4.403-.006-8.82-.006-13.227a.59.59 0 0 1 .6-.6zm1.4 0h10.397v12.019a.387.387 0 0 1-.394.398H5.195a.387.387 0 0 1-.394-.398c.004-4.007-.016-8.013-.001-12.02zm11.198 0h.602c.339 0 .6.26.6.6-.008 4.407.015 8.823-.007 13.227l-1.31-1.31c.07-.153.115-.32.115-.498zM7 52.666c-1.333 0-1.333 2 0 2s1.333-2 0-2zm3 0c-1.333 0-1.333 2 0 2s1.333-2 0-2zm3 0c-1.333 0-1.333 2 0 2s1.333-2 0-2zm2.318 7.886l1.309 1.309c-4.61-.001-9.302.015-13.254 0l1.307-1.307c.158.078.329.13.515.13h9.608c.187 0 .357-.054.515-.132z" style="line-height:normal;font-variant-ligatures:normal;font-variant-position:normal;font-variant-caps:normal;font-variant-numeric:normal;font-variant-alternates:normal;font-variant-east-asian:normal;font-feature-settings:normal;font-variation-settings:normal;text-indent:0;text-align:start;text-decoration-line:none;text-decoration-style:solid;text-decoration-color:#000;text-transform:none;text-orientation:mixed;shape-padding:0;shape-margin:0;inline-size:0;isolation:auto;mix-blend-mode:normal" color="#000" font-weight="400" font-family="sans-serif" white-space="normal" overflow="visible" fill="#595959"/><path fill="#595959" font-family="Source Sans Pro" font-size="21.341" font-weight="400" font-style="italic" style="line-height:1.25;-inkscape-font-specification:'Source Sans Pro Italic'" d="M8.693-192.334l-.54 1.5h2.451l-3.974 11H4.307l-.542 1.5h7.542l.54-1.5h-2.68l3.973-11h2.553l.542-1.5h-4.59z"/></svg>