<?xml version="1.0" encoding="UTF-8" standalone="no"?>
<!DOCTYPE svg PUBLIC "-//W3C//DTD SVG 1.1//EN" "http://www.w3.org/Graphics/SVG/1.1/DTD/svg11.dtd">
<svg width="100%" height="100%" viewBox="0 0 1242 232" version="1.1" xmlns="http://www.w3.org/2000/svg" xmlns:xlink="http://www.w3.org/1999/xlink" xml:space="preserve" xmlns:serif="http://www.serif.com/" style="fill-rule:evenodd;clip-rule:evenodd;stroke-linejoin:round;stroke-miterlimit:2;">
    <g transform="matrix(0.662389,0,0,0.734874,-162.198,-878.574)">
        <g transform="matrix(8.83539,0,0,1.48014,-5113.83,983.587)">
            <path d="M671.622,209.871L671.622,295.928L668.999,295.928L668.999,236.988L664.12,295.928L662.302,295.928L657.4,236.988L657.4,295.928L654.777,295.928L654.777,209.871L657.607,209.871L663.222,277.354L668.815,209.871L671.622,209.871Z" style="fill:white;fill-rule:nonzero;"/>
            <path d="M677.698,284.536L683.106,284.536L683.106,295.928L675.074,295.928L675.074,209.871L677.698,209.871L677.698,284.536Z" style="fill:white;fill-rule:nonzero;"/>
            <path d="M693.6,295.928L689.918,261.505L687.915,261.505L687.915,295.928L685.292,295.928L685.292,209.871L690.815,209.871C692.042,209.871 693.082,211.027 693.933,213.338C694.785,215.65 695.421,218.745 695.843,222.625C696.265,226.505 696.476,230.839 696.476,235.626C696.476,241.24 696.173,246.337 695.567,250.918C694.961,255.5 694.029,258.616 692.771,260.267L696.729,295.928L693.6,295.928ZM687.915,250.237L690.815,250.237C691.797,250.237 692.537,248.917 693.036,246.275C693.534,243.633 693.784,240.084 693.784,235.626C693.784,231.169 693.538,227.681 693.047,225.163C692.556,222.646 691.812,221.387 690.815,221.387L687.915,221.387L687.915,250.237Z" style="fill:white;fill-rule:nonzero;"/>
            <path d="M715.462,278.345L708.765,278.345L707.615,295.928L704.876,295.928L710.606,209.748L713.644,209.748L719.374,295.928L716.613,295.928L715.462,278.345ZM714.726,266.829L712.125,226.835L709.502,266.829L714.726,266.829Z" style="fill:white;fill-rule:nonzero;"/>
            <path d="M727.084,209.871C728.787,209.871 730.279,211.626 731.56,215.134C732.841,218.642 733.83,223.678 734.528,230.24C735.226,236.803 735.576,244.459 735.576,253.209C735.576,261.959 735.226,269.554 734.528,275.992C733.83,282.431 732.841,287.363 731.56,290.789C730.279,294.215 728.787,295.928 727.084,295.928L721.86,295.928L721.86,209.871L727.084,209.871ZM727.084,284.412C728.955,284.412 730.39,281.688 731.387,276.24C732.384,270.792 732.883,263.115 732.883,253.209C732.883,243.221 732.384,235.42 731.387,229.807C730.39,224.193 728.955,221.387 727.084,221.387L724.483,221.387L724.483,284.412L727.084,284.412Z" style="fill:white;fill-rule:nonzero;"/>
            <path d="M751.961,209.871L745.954,295.928L742.917,295.928L736.887,209.871L739.695,209.871L744.436,281.44L749.199,209.871L751.961,209.871Z" style="fill:white;fill-rule:nonzero;"/>
            <rect x="754.147" y="209.871" width="2.623" height="86.056" style="fill:white;fill-rule:nonzero;"/>
            <path d="M765.493,296.794C764.419,296.794 763.452,295.783 762.593,293.761C761.734,291.738 761.059,288.87 760.568,285.155C760.077,281.44 759.831,277.107 759.831,272.154L762.639,272.154C762.7,275.868 762.973,278.923 763.456,281.317C763.939,283.711 764.618,284.907 765.493,284.907C766.398,284.907 767.103,283.731 767.61,281.379C768.116,279.026 768.369,275.992 768.369,272.278C768.369,269.388 768.212,267.036 767.897,265.22C767.583,263.404 767.192,262 766.724,261.01C766.256,260.019 765.608,258.946 764.779,257.79C763.736,256.305 762.888,254.798 762.236,253.271C761.584,251.744 761.028,249.371 760.568,246.151C760.107,242.932 759.877,238.639 759.877,233.274C759.877,228.321 760.107,223.987 760.568,220.272C761.028,216.558 761.672,213.71 762.501,211.729C763.329,209.748 764.288,208.757 765.377,208.757C766.927,208.757 768.197,210.841 769.186,215.01C770.176,219.179 770.724,224.895 770.832,232.159L767.932,232.159C767.886,229.023 767.61,226.34 767.103,224.111C766.597,221.882 765.93,220.768 765.101,220.768C764.35,220.768 763.736,221.8 763.26,223.863C762.785,225.927 762.547,228.899 762.547,232.778C762.547,235.42 762.696,237.587 762.996,239.279C763.295,240.971 763.675,242.313 764.135,243.303C764.595,244.294 765.224,245.367 766.022,246.523C767.08,248.091 767.943,249.659 768.611,251.228C769.278,252.796 769.846,255.211 770.314,258.471C770.782,261.732 771.016,266.087 771.016,271.535C771.016,275.91 770.797,280.037 770.36,283.917C769.923,287.797 769.286,290.913 768.45,293.265C767.614,295.618 766.628,296.794 765.493,296.794Z" style="fill:white;fill-rule:nonzero;"/>
            <path d="M781.418,296.794C779.929,296.794 778.56,294.916 777.31,291.16C776.059,287.405 775.07,282.163 774.341,275.435C773.612,268.707 773.248,261.134 773.248,252.714C773.248,244.294 773.612,236.741 774.341,230.054C775.07,223.368 776.059,218.147 777.31,214.391C778.56,210.635 779.929,208.757 781.418,208.757C782.921,208.757 784.298,210.635 785.548,214.391C786.799,218.147 787.785,223.368 788.506,230.054C789.227,236.741 789.587,244.294 789.587,252.714C789.587,261.134 789.227,268.707 788.506,275.435C787.785,282.163 786.799,287.405 785.548,291.16C784.298,294.916 782.921,296.794 781.418,296.794ZM781.418,284.536C782.476,284.536 783.42,283.236 784.248,280.636C785.077,278.035 785.725,274.321 786.193,269.492C786.661,264.663 786.895,259.07 786.895,252.714C786.895,246.358 786.661,240.786 786.193,235.998C785.725,231.21 785.077,227.537 784.248,224.978C783.42,222.419 782.476,221.139 781.418,221.139C780.359,221.139 779.415,222.419 778.587,224.978C777.759,227.537 777.11,231.21 776.642,235.998C776.174,240.786 775.941,246.358 775.941,252.714C775.941,259.07 776.174,264.663 776.642,269.492C777.11,274.321 777.759,278.035 778.587,280.636C779.415,283.236 780.359,284.536 781.418,284.536Z" style="fill:white;fill-rule:nonzero;"/>
            <path d="M800.472,295.928L796.79,261.505L794.788,261.505L794.788,295.928L792.165,295.928L792.165,209.871L797.688,209.871C798.915,209.871 799.955,211.027 800.806,213.338C801.658,215.65 802.294,218.745 802.716,222.625C803.138,226.505 803.349,230.839 803.349,235.626C803.349,241.24 803.046,246.337 802.44,250.918C801.834,255.5 800.902,258.616 799.644,260.267L803.602,295.928L800.472,295.928ZM794.788,250.237L797.688,250.237C798.67,250.237 799.41,248.917 799.909,246.275C800.407,243.633 800.657,240.084 800.657,235.626C800.657,231.169 800.411,227.681 799.92,225.163C799.429,222.646 798.685,221.387 797.688,221.387L794.788,221.387L794.788,250.237Z" style="fill:white;fill-rule:nonzero;"/>
            <path d="M818.561,209.871L813.268,264.725L813.268,295.928L810.644,295.928L810.644,264.725L805.328,209.871L808.251,209.871L811.956,252.095L815.661,209.871L818.561,209.871Z" style="fill:white;fill-rule:nonzero;"/>
        </g>
        <g transform="matrix(2.16624,0,0,1.95243,244.869,1197.5)">
            <path d="M40,107.643L49.711,117.355L51.335,115.731L60,107.244L60,140.012L79.999,140.012L79.999,70.821L79.935,70.756L79.999,70.756L79.999,65.714L60,85.196L60,85.294L48.883,96.183L40,87.299L40,87.198L36.068,83.368L34.381,81.68L34.358,81.702L20,67.714L20,160.012L0,160.012L0,39.012L19.198,39.012L48.973,68.017L78.748,39.011L99.999,39.011L99.999,70.888L103.969,70.915C113.146,70.975 122.581,70.447 129.621,66.816C132.885,65.132 135.514,62.828 137.409,59.527C139.336,56.169 140.859,51.154 140.859,43.536C140.859,36.375 139.313,31.81 137.471,28.835C135.641,25.879 133.105,23.822 130.003,22.338C123.315,19.138 115.022,19 108.75,19L99.999,19L99.999,19.011L99.279,19.011L99.29,19L0,19L0,-1L108.75,-1L109.167,-1C115.114,-1.003 127.544,-1.01 138.635,4.297C144.556,7.13 150.29,11.548 154.475,18.306C158.647,25.043 160.859,33.43 160.859,43.536C160.859,53.829 158.788,62.456 154.754,69.484C150.688,76.568 144.989,81.393 138.789,84.591C134.66,86.721 130.27,88.141 125.922,89.085L156.109,119.868L128.097,119.868L99.999,91.216L99.999,120.012L80,120.012L80,140.012L161,140.012L161,160.012L40,160.012L40,107.643ZM160.849,124.702L160.996,124.852L160.849,124.996L160.849,124.702Z" style="fill:white;"/>
        </g>
    </g>
</svg>
