<?xml version="1.0" encoding="UTF-8" standalone="no"?>
<!DOCTYPE svg PUBLIC "-//W3C//DTD SVG 1.1//EN" "http://www.w3.org/Graphics/SVG/1.1/DTD/svg11.dtd">
<svg width="100%" height="100%" viewBox="0 0 706 706" version="1.1" xmlns="http://www.w3.org/2000/svg" xmlns:xlink="http://www.w3.org/1999/xlink" xml:space="preserve" xmlns:serif="http://www.serif.com/" style="fill-rule:evenodd;clip-rule:evenodd;stroke-linejoin:round;stroke-miterlimit:2;">
    <rect x="0" y="0" width="706" height="706" style="fill:rgb(4,44,113);"/>
    <g transform="matrix(1.34009,0,0,1.34009,-1.59056,17.9777)">
        <path d="M167.133,317.711L190.504,341.082L194.413,337.174L215.266,316.751L215.266,395.606L263.397,395.606L263.397,229.1L263.243,228.943L263.397,228.944L263.397,216.809L215.266,263.693L215.266,263.929L188.51,290.132L167.133,268.755L167.133,268.51L157.671,259.293L153.609,255.231L153.556,255.284L119,221.624L119,443.735L70.867,443.735L70.867,152.553L117.07,152.553L188.727,222.353L260.386,152.551L311.53,152.551L311.53,229.262L321.084,229.325C343.17,229.47 365.876,228.2 382.819,219.462C390.675,215.41 397.002,209.866 401.562,201.922C406.2,193.841 409.865,181.773 409.865,163.44C409.865,146.206 406.144,135.221 401.711,128.061C397.307,120.949 391.204,115.998 383.739,112.427C367.643,104.726 347.685,104.395 332.59,104.395L311.53,104.395L311.53,104.421L309.796,104.421L309.823,104.395L70.867,104.395L70.867,56.265L333.594,56.265C347.906,56.257 377.821,56.241 404.513,69.011C418.763,75.828 432.562,86.46 442.634,102.723C452.675,118.937 457.998,139.119 457.998,163.44C457.998,188.208 453.014,208.971 443.306,225.882C433.52,242.93 419.805,254.54 404.883,262.236C394.946,267.362 384.381,270.78 373.917,273.052L446.567,347.13L379.151,347.13L311.53,278.179L311.53,347.476L263.399,347.476L263.399,395.606L458.337,395.606L458.337,443.735L167.133,443.735L167.133,317.711ZM457.974,358.763L458.328,359.124L457.974,359.47L457.974,358.763Z" style="fill:white;"/>
    </g>
</svg>
