<svg xmlns="http://www.w3.org/2000/svg" width="21" height="6" viewBox="0 0 5.5562501 1.5875"><path d="M.264 0A.265.265 0 0 0 0 .265.265.265 0 0 0 .264.53.265.265 0 0 0 .53.265.265.265 0 0 0 .264 0zM1.94 0a.265.265 0 0 0-.265.265.265.265 0 0 0 .265.265.265.265 0 0 0 .265-.265A.265.265 0 0 0 1.94 0zm1.676 0a.265.265 0 0 0-.265.265.265.265 0 0 0 .265.265.265.265 0 0 0 .265-.265A.265.265 0 0 0 3.616 0zM5.29 0a.265.265 0 0 0-.265.265.265.265 0 0 0 .265.265.265.265 0 0 0 .265-.265A.265.265 0 0 0 5.291 0zm-4.19 1.058a.265.265 0 0 0-.264.265.265.265 0 0 0 .265.265.265.265 0 0 0 .265-.265.265.265 0 0 0-.265-.265zm1.677 0a.265.265 0 0 0-.265.265.265.265 0 0 0 .265.265.265.265 0 0 0 .265-.265.265.265 0 0 0-.265-.265zm1.676 0a.265.265 0 0 0-.265.265.265.265 0 0 0 .265.265.265.265 0 0 0 .265-.265.265.265 0 0 0-.265-.265z" fill-opacity=".4"/></svg>