<?xml version="1.0" encoding="UTF-8"?>
<svg id="Layer_2" data-name="Layer 2" xmlns="http://www.w3.org/2000/svg" viewBox="0 0 329.35 84.44">
  <defs>
    <style>
      .cls-1 {
        fill: #d2232a;
      }

      .cls-2 {
        fill: #fff;
      }
    </style>
  </defs>
  <g id="Layer_1-2" data-name="Layer 1">
    <g>
      <path class="cls-1" d="M44.25,84.44c24.44,0,44.25-18.9,44.25-42.22S68.7,0,44.25,0,0,18.9,0,42.22s19.81,42.22,44.25,42.22"/>
      <g>
        <path class="cls-2" d="M37.18,43.82h-2.4v6.81h-.36c-.42-.45-.6-.57-1.2-.57-1.44,0-2.73,1.86-6.51,1.86-2.82,0-4.92-.9-6.96-2.94-1.98-1.98-3.48-4.74-3.48-8.13,0-4.59,2.4-7.2,3.45-8.25,1.8-1.8,4.11-3.03,7.05-3.03s3.63,1.17,5.1,1.17c.78,0,1.05-.24,1.35-.63h.45v6h-.33c-.33-2.07-1.59-6.12-6.6-6.12-5.97,0-7.02,5.55-7.02,10.86,0,3.63.51,7.29,2.64,9.21,1.2,1.08,2.31,1.44,4.35,1.44,2.49,0,5.19-1.62,5.19-5.16v-2.52h-3.87v-.42h9.15v.42Z"/>
        <path class="cls-2" d="M38.68,51.05h2.31v-12.03h-2.31v-.42h2.31v-1.59c0-2.79.57-3.99,1.35-4.98,1.05-1.32,2.7-2.46,4.44-2.46,2.61,0,3.72,1.71,3.72,2.79,0,.75-.39,1.53-1.44,1.53-.51,0-1.38-.15-1.38-.96,0-.69.57-1.14.57-1.83,0-.9-.9-1.11-1.65-1.11-1.65,0-3.03,1.38-3.03,4.44v4.17h3.72v.42h-3.72v12.03h2.73v.42h-7.62v-.42Z"/>
        <path class="cls-2" d="M52.21,44.03c0,.39-.03.78-.03,1.41,0,2.67.42,6.03,3.96,6.03s4.32-2.43,4.62-3.39l.45.09c-.27.87-1.08,3.72-5.1,3.72s-6.93-2.7-6.93-6.78c0-3.54,2.97-6.9,6.75-6.9,2.22,0,5.52,1.44,5.52,5.82h-9.24ZM58.39,43.61c.06-.57.06-1.02.06-1.53,0-2.7-1.08-3.45-2.64-3.45-2.7,0-3.39,2.37-3.57,4.98h6.15Z"/>
      </g>
      <path class="cls-2" d="M73.37,45c.94,0,1.75.33,2.44.98.69.66,1.04,1.48,1.04,2.46s-.34,1.78-1.02,2.46c-.68.68-1.5,1.02-2.46,1.02s-1.75-.34-2.43-1.02c-.68-.68-1.02-1.5-1.02-2.46s.34-1.75,1.02-2.43,1.49-1.02,2.43-1.02Z"/>
      <g>
        <path class="cls-1" d="M93.2,53.53h1.78v-10.95h-1.78v-.22h2.8c.32,0,.66-.02.99-.03.34,0,.67-.02.96-.02,3.12,0,3.86,1.67,3.86,2.71,0,1.41-1.33,2.42-2.83,2.58v.03c1.55.13,3.36,1.07,3.36,2.91s-1.44,3.28-4.4,3.28c-.29,0-.58-.02-.9-.03-.32-.02-.66-.03-1.04-.03h-2.8v-.22ZM96.58,47.53h1.47c1.18,0,2-.51,2-2.48,0-2.24-1.26-2.51-2.39-2.51-.38,0-.82.02-1.09.05v4.95ZM96.58,53.53c.26.02.51.06,1.09.06,2.02,0,2.83-.7,2.83-3.09,0-1.7-.74-2.75-2.16-2.75h-1.76v5.78Z"/>
        <path class="cls-1" d="M103.83,53.53h1.23v-6.42h-1.23v-.22h2.58v1.62h.03c.18-.62.75-1.79,2.1-1.79.99,0,1.42.69,1.42,1.33,0,.7-.38.88-.8.88-.46,0-.7-.18-.7-.45,0-.38.21-.38.21-.93,0-.32-.19-.51-.56-.51-.67,0-1.67,1.06-1.67,2.83v3.67h1.39v.22h-4v-.22Z"/>
        <path class="cls-1" d="M110.35,53.53h1.23v-6.42h-1.23v-.22h2.61v6.64h1.23v.22h-3.84v-.22ZM112.24,42.31c.46,0,.85.38.85.85s-.38.85-.85.85-.85-.38-.85-.85.38-.85.85-.85Z"/>
        <path class="cls-1" d="M119.84,42.22h2.61v11.32h1.23v.22h-2.58v-1.39h-.03c-.16.5-.66,1.62-2.11,1.62-1.89,0-3.49-1.74-3.49-3.7s1.55-3.6,3.38-3.6c1.17,0,1.9.66,2.19,1.49h.03v-5.73h-1.23v-.22ZM118.98,53.76c1.78,0,2.1-1.73,2.1-3.14,0-1.65-.11-2.4-.56-2.98-.32-.42-.82-.74-1.6-.74-1.49,0-1.84,1.23-1.84,3.19,0,2.23.14,3.67,1.9,3.67Z"/>
        <path class="cls-1" d="M126.35,50.81c-.61-.42-.93-1.01-.93-1.73,0-1.5,1.6-2.4,2.85-2.4.96,0,1.68.5,2,.82.24-.4.69-.82,1.38-.82.43,0,.86.13.86.72,0,.38-.3.58-.56.58-.58,0-.43-.8-.88-.8-.21,0-.46.22-.62.45.19.21.59.74.59,1.5,0,1.26-1.38,2.23-2.85,2.23-.74,0-1.31-.27-1.62-.42-.46.21-1.14.51-1.14,1.22,0,.66.54.78,1.09.78h2.53c1.49,0,2.45.69,2.45,2.23,0,1.86-1.78,3.17-3.62,3.17-1.65,0-2.87-.78-2.87-1.92s.98-1.81,1.87-2.15v-.03c-1.41,0-2.06-.42-2.06-1.52s.96-1.65,1.52-1.9ZM127.23,54.24c-.56.34-1.18.69-1.18,1.79,0,1.52,1.18,1.98,2.16,1.98,1.54,0,2.58-1.01,2.58-2.13,0-1.18-.7-1.65-1.82-1.65h-1.73ZM128.27,46.91c-1.09,0-1.65.62-1.65,2.13,0,1.28.34,2.1,1.66,2.1,1.1,0,1.54-.69,1.54-2.1,0-.98-.14-2.13-1.55-2.13Z"/>
        <path class="cls-1" d="M132.88,53.53h1.23v-6.42h-1.23v-.22h2.61v6.64h1.23v.22h-3.84v-.22ZM134.77,42.31c.46,0,.85.38.85.85s-.38.85-.85.85-.85-.38-.85-.85.38-.85.85-.85Z"/>
        <path class="cls-1" d="M137.57,53.53h1.23v-6.42h-1.23v-.22h2.58v1.71h.03c.26-.56.91-1.89,2.75-1.89,1.41,0,2.39.66,2.39,2.15v4.67h1.23v.22h-3.84v-.22h1.23v-5.17c0-.83-.38-1.42-1.22-1.42-1.38,0-2.54,1.28-2.54,2.98v3.62h1.23v.22h-3.84v-.22Z"/>
        <path class="cls-1" d="M149.17,50.81c-.61-.42-.93-1.01-.93-1.73,0-1.5,1.6-2.4,2.85-2.4.96,0,1.68.5,2,.82.24-.4.69-.82,1.38-.82.43,0,.86.13.86.72,0,.38-.3.58-.56.58-.58,0-.43-.8-.88-.8-.21,0-.46.22-.62.45.19.21.59.74.59,1.5,0,1.26-1.38,2.23-2.85,2.23-.74,0-1.31-.27-1.62-.42-.46.21-1.14.51-1.14,1.22,0,.66.54.78,1.09.78h2.53c1.49,0,2.45.69,2.45,2.23,0,1.86-1.78,3.17-3.62,3.17-1.65,0-2.87-.78-2.87-1.92s.98-1.81,1.87-2.15v-.03c-1.41,0-2.06-.42-2.06-1.52s.96-1.65,1.52-1.9ZM150.05,54.24c-.56.34-1.18.69-1.18,1.79,0,1.52,1.18,1.98,2.16,1.98,1.54,0,2.58-1.01,2.58-2.13,0-1.18-.7-1.65-1.82-1.65h-1.73ZM151.09,46.91c-1.09,0-1.65.62-1.65,2.13,0,1.28.34,2.1,1.67,2.1,1.1,0,1.54-.69,1.54-2.1,0-.98-.14-2.13-1.55-2.13Z"/>
        <path class="cls-1" d="M162.03,49.79c0,.21-.02.42-.02.75,0,1.42.22,3.22,2.11,3.22s2.3-1.3,2.46-1.81l.24.05c-.14.46-.58,1.98-2.72,1.98s-3.7-1.44-3.7-3.62c0-1.89,1.58-3.68,3.6-3.68,1.18,0,2.95.77,2.95,3.1h-4.93ZM165.33,49.56c.03-.3.03-.54.03-.82,0-1.44-.58-1.84-1.41-1.84-1.44,0-1.81,1.26-1.91,2.66h3.28Z"/>
        <path class="cls-1" d="M172.9,42.22h2.61v11.32h1.23v.22h-2.58v-1.39h-.03c-.16.5-.66,1.62-2.11,1.62-1.89,0-3.49-1.74-3.49-3.7s1.55-3.6,3.38-3.6c1.17,0,1.9.66,2.19,1.49h.03v-5.73h-1.23v-.22ZM172.03,53.76c1.78,0,2.1-1.73,2.1-3.14,0-1.65-.11-2.4-.56-2.98-.32-.42-.82-.74-1.6-.74-1.49,0-1.84,1.23-1.84,3.19,0,2.23.14,3.67,1.91,3.67Z"/>
        <path class="cls-1" d="M186.29,53.76h-2.58v-1.62h-.03c-.38.86-1.04,1.84-2.45,1.84-.85,0-1.38-.24-1.67-.45-.3-.22-.77-.58-.77-1.87v-4.55h-1.23v-.22h2.61v4.91c0,1.1.27,1.95,1.36,1.95.93,0,2.15-1.15,2.15-2.93v-3.71h-1.22v-.22h2.59v6.64h1.23v.22Z"/>
        <path class="cls-1" d="M193.81,52c-.14.46-.58,1.98-2.72,1.98-1.63,0-3.7-.94-3.7-3.62,0-2.08,1.66-3.68,3.73-3.68,1.14,0,2.59.51,2.59,1.82,0,.45-.3.77-.83.77-.37,0-.77-.14-.77-.53,0-.3.22-.8.22-1.07,0-.5-.58-.77-1.22-.77-.94,0-2.13.24-2.13,3.51,0,1.82.38,3.35,2.11,3.35,1.89,0,2.3-1.3,2.46-1.81l.24.05Z"/>
        <path class="cls-1" d="M202.02,53.58c-.27.21-.66.4-1.2.4-1.02,0-1.41-.46-1.58-1.25h-.03c-.16.4-.53,1.25-2.11,1.25-1.78,0-2.06-.9-2.06-1.55,0-1.5,1.31-1.65,2.5-2.03,1.42-.46,1.75-.56,1.75-1.84,0-1.02-.18-1.65-1.23-1.65-.7,0-1.22.24-1.22.78,0,.37.1.75.1.93,0,.29-.22.53-.62.53-.7,0-.78-.29-.78-.69,0-.94.86-1.78,2.5-1.78,1.97,0,2.59,1.07,2.59,2.21v3.99c0,.61.21.78.56.78.22,0,.51-.1.74-.26l.13.18ZM199.22,49.84h-.03c-.02.13-.21.29-.53.42l-1.2.48c-.67.27-1.06.77-1.06,1.52,0,.66.19,1.41,1.18,1.41,1.42,0,1.63-1.36,1.63-2.22v-1.6Z"/>
        <path class="cls-1" d="M202.34,46.89h1.23v-2.06c.16.06.26.11.62.11.32,0,.54-.08.75-.24v2.19h2.27v.22h-2.27v5.23c0,1.2.53,1.41.96,1.41.75,0,1.22-.64,1.34-1.34l.22.08c-.11.54-.46,1.49-1.76,1.49-1.6,0-2.14-.66-2.14-1.78v-5.09h-1.23v-.22Z"/>
        <path class="cls-1" d="M207.84,53.53h1.23v-6.42h-1.23v-.22h2.61v6.64h1.23v.22h-3.84v-.22ZM209.73,42.31c.46,0,.85.38.85.85s-.38.85-.85.85-.85-.38-.85-.85.38-.85.85-.85Z"/>
        <path class="cls-1" d="M216.58,46.68c1.71,0,3.73,1.54,3.73,3.65s-1.86,3.65-3.73,3.65-3.73-1.63-3.73-3.65,2.02-3.65,3.73-3.65ZM216.58,53.76c1.14,0,2.13-.4,2.13-3.43,0-2.54-.69-3.43-2.13-3.43s-2.13.88-2.13,3.43c0,3.02.99,3.43,2.13,3.43Z"/>
        <path class="cls-1" d="M221.42,53.53h1.23v-6.42h-1.23v-.22h2.58v1.71h.03c.26-.56.91-1.89,2.75-1.89,1.41,0,2.38.66,2.38,2.15v4.67h1.23v.22h-3.84v-.22h1.23v-5.17c0-.83-.38-1.42-1.22-1.42-1.38,0-2.55,1.28-2.55,2.98v3.62h1.23v.22h-3.84v-.22Z"/>
        <path class="cls-1" d="M235.18,46.89h3.86v.22h-1.33l1.79,4.99,1.67-3.95-.4-1.04h-.67v-.22h3.19v.22h-1.07l1.86,4.96,2-4.96h-1.5v-.22h2.61v.22h-.85l-2.87,7.17-2.18-5.81-2.43,5.81-2.58-7.17h-1.09v-.22Z"/>
        <path class="cls-1" d="M247.55,53.53h1.23v-6.42h-1.23v-.22h2.61v6.64h1.23v.22h-3.84v-.22ZM249.44,42.31c.46,0,.85.38.85.85s-.38.85-.85.85-.85-.38-.85-.85.38-.85.85-.85Z"/>
        <path class="cls-1" d="M252.11,46.89h1.23v-2.06c.16.06.26.11.62.11.32,0,.54-.08.75-.24v2.19h2.27v.22h-2.27v5.23c0,1.2.53,1.41.96,1.41.75,0,1.22-.64,1.34-1.34l.22.08c-.11.54-.46,1.49-1.76,1.49-1.6,0-2.14-.66-2.14-1.78v-5.09h-1.23v-.22Z"/>
        <path class="cls-1" d="M257.57,53.53h1.23v-11.09h-1.23v-.22h2.61v6.29h.03c.22-.58.98-1.79,2.72-1.79,1.41,0,2.38.66,2.38,2.15v4.67h1.23v.22h-3.84v-.22h1.23v-5.17c0-.83-.38-1.42-1.22-1.42-1.38,0-2.55,1.28-2.55,2.98v3.62h1.23v.22h-3.84v-.22Z"/>
        <path class="cls-1" d="M271.84,58.02h1.23v-10.9h-1.23v-.22h2.58v1.34h.03c.32-.9,1.06-1.55,2.22-1.55,1.82,0,3.38,1.68,3.38,3.6s-1.6,3.7-3.49,3.7c-1.46,0-1.95-1.12-2.08-1.55h-.03v5.59h1.23v.22h-3.84v-.22ZM276.61,46.91c-.78,0-1.28.32-1.6.74-.45.58-.56,1.33-.56,2.98,0,1.41.32,3.14,2.1,3.14s1.9-1.44,1.9-3.67c0-1.95-.35-3.19-1.84-3.19Z"/>
        <path class="cls-1" d="M289.99,53.76h-2.58v-1.62h-.03c-.38.86-1.04,1.84-2.45,1.84-.85,0-1.38-.24-1.67-.45-.3-.22-.77-.58-.77-1.87v-4.55h-1.23v-.22h2.61v4.91c0,1.1.27,1.95,1.36,1.95.93,0,2.15-1.15,2.15-2.93v-3.71h-1.22v-.22h2.59v6.64h1.23v.22Z"/>
        <path class="cls-1" d="M290.8,53.53h1.23v-6.42h-1.23v-.22h2.58v1.62h.03c.18-.62.75-1.79,2.1-1.79.99,0,1.42.69,1.42,1.33,0,.7-.38.88-.8.88-.46,0-.71-.18-.71-.45,0-.38.21-.38.21-.93,0-.32-.19-.51-.56-.51-.67,0-1.67,1.06-1.67,2.83v3.67h1.39v.22h-4v-.22Z"/>
        <path class="cls-1" d="M297.33,58.02h1.23v-10.9h-1.23v-.22h2.58v1.34h.03c.32-.9,1.06-1.55,2.22-1.55,1.82,0,3.38,1.68,3.38,3.6s-1.6,3.7-3.49,3.7c-1.46,0-1.95-1.12-2.08-1.55h-.03v5.59h1.23v.22h-3.84v-.22ZM302.1,46.91c-.78,0-1.28.32-1.6.74-.45.58-.56,1.33-.56,2.98,0,1.41.32,3.14,2.1,3.14s1.9-1.44,1.9-3.67c0-1.95-.35-3.19-1.84-3.19Z"/>
        <path class="cls-1" d="M310.82,46.68c1.71,0,3.73,1.54,3.73,3.65s-1.86,3.65-3.73,3.65-3.73-1.63-3.73-3.65,2.02-3.65,3.73-3.65ZM310.82,53.76c1.14,0,2.13-.4,2.13-3.43,0-2.54-.69-3.43-2.13-3.43s-2.13.88-2.13,3.43c0,3.02.99,3.43,2.13,3.43Z"/>
        <path class="cls-1" d="M316.16,51.52h.18c.29,1.01.91,2.24,2.53,2.24.69,0,1.31-.4,1.31-1.33,0-.82-.5-1.06-1.04-1.25l-1.25-.43c-.66-.22-1.58-.54-1.58-1.95,0-1.2.98-2.11,2.31-2.11.93,0,1.09.34,1.54.34.14,0,.21-.05.26-.13h.18v1.82h-.18c-.3-.96-.7-1.81-1.79-1.81-1.02,0-1.62.5-1.62,1.26,0,.69.5.98,1.42,1.26l1.17.38c.99.34,1.71.91,1.71,1.89,0,1.17-.93,2.27-2.54,2.27-.94,0-1.55-.45-2.03-.45-.24,0-.32.11-.38.22h-.18v-2.24Z"/>
        <path class="cls-1" d="M324.42,49.79c0,.21-.02.42-.02.75,0,1.42.22,3.22,2.11,3.22s2.3-1.3,2.46-1.81l.24.05c-.14.46-.58,1.98-2.72,1.98s-3.7-1.44-3.7-3.62c0-1.89,1.58-3.68,3.6-3.68,1.18,0,2.95.77,2.95,3.1h-4.93ZM327.71,49.56c.03-.3.03-.54.03-.82,0-1.44-.58-1.84-1.41-1.84-1.44,0-1.81,1.26-1.91,2.66h3.28Z"/>
      </g>
    </g>
  </g>
</svg>