<?xml version="1.0" encoding="UTF-8"?>
<svg id="Layer_2" xmlns="http://www.w3.org/2000/svg" version="1.1" viewBox="0 0 329.4 84.4">
  <!-- Generator: Adobe Illustrator 29.1.0, SVG Export Plug-In . SVG Version: 2.1.0 Build 142)  -->
  <defs>
    <style>
      .st0 {
        fill: #fff;
      }

      .st1 {
        fill: #d2232a;
      }
    </style>
  </defs>
  <path class="st1" d="M44.2,84.4c24.4,0,44.2-18.9,44.2-42.2S68.7,0,44.2,0,0,18.9,0,42.2s19.8,42.2,44.2,42.2"/>
  <path class="st0" d="M37.2,43.8h-2.4v6.8h-.4c-.4-.5-.6-.6-1.2-.6-1.4,0-2.7,1.9-6.5,1.9s-4.9-.9-7-2.9c-2-2-3.5-4.7-3.5-8.1s2.4-7.2,3.5-8.2c1.8-1.8,4.1-3,7-3s3.6,1.2,5.1,1.2,1.1-.2,1.4-.6h.5v6h-.3c-.3-2.1-1.6-6.1-6.6-6.1s-7,5.5-7,10.9.5,7.3,2.6,9.2c1.2,1.1,2.3,1.4,4.4,1.4s5.2-1.6,5.2-5.2v-2.5h-3.9v-.4h9.1s0,.4,0,.4Z"/>
  <path class="st0" d="M38.7,51h2.3v-12h-2.3v-.4h2.3v-1.6c0-2.8.6-4,1.3-5,1-1.3,2.7-2.5,4.4-2.5,2.6,0,3.7,1.7,3.7,2.8s-.4,1.5-1.4,1.5-1.4-.2-1.4-1,.6-1.1.6-1.8-.9-1.1-1.7-1.1c-1.7,0-3,1.4-3,4.4v4.2h3.7v.4h-3.7v12h2.7v.4h-7.6v-.4Z"/>
  <path class="st0" d="M52.2,44c0,.4,0,.8,0,1.4,0,2.7.4,6,4,6s4.3-2.4,4.6-3.4h.5c-.3,1-1.1,3.8-5.1,3.8s-6.9-2.7-6.9-6.8,3-6.9,6.8-6.9,5.5,1.4,5.5,5.8h-9.2ZM58.4,43.6c0-.6,0-1,0-1.5,0-2.7-1.1-3.5-2.6-3.5-2.7,0-3.4,2.4-3.6,5,0,0,6.2,0,6.1,0Z"/>
  <path class="st0" d="M73.4,45c.9,0,1.8.3,2.4,1,.7.7,1,1.5,1,2.5s-.3,1.8-1,2.5-1.5,1-2.5,1-1.8-.3-2.4-1-1-1.5-1-2.5.3-1.8,1-2.4,1.5-1,2.4-1h0Z"/>
  <g>
    <path class="st1" d="M92.2,50.5h1.8v-11h-1.8v-.2h2.8c.3,0,.7,0,1,0,.3,0,.7,0,1,0,3.1,0,3.9,1.7,3.9,2.7s-1.3,2.4-2.8,2.6h0c1.6.2,3.4,1.1,3.4,2.9s-1.4,3.3-4.4,3.3-.6,0-.9,0c-.3,0-.7,0-1,0h-2.8v-.2h0ZM95.6,44.5h1.5c1.2,0,2-.5,2-2.5s-1.3-2.5-2.4-2.5-.8,0-1.1,0v5h0ZM95.6,50.5c.3,0,.5,0,1.1,0,2,0,2.8-.7,2.8-3.1s-.7-2.8-2.2-2.8h-1.8s0,5.8,0,5.8Z"/>
    <path class="st1" d="M102.8,50.5h1.2v-6.4h-1.2v-.2h2.6v1.6h0c.2-.6.8-1.8,2.1-1.8s1.4.7,1.4,1.3-.4.9-.8.9-.7-.2-.7-.5.2-.4.2-.9-.2-.5-.6-.5c-.7,0-1.7,1.1-1.7,2.8v3.7h1.4v.2h-4v-.2h0Z"/>
    <path class="st1" d="M109.3,50.5h1.2v-6.4h-1.2v-.2h2.6v6.6h1.2v.2h-3.8s0-.2,0-.2ZM111.2,39.3c.5,0,.8.4.8.8s-.4.8-.8.8-.8-.4-.8-.8.4-.8.8-.8Z"/>
    <path class="st1" d="M118.8,39.2h2.6v11.3h1.2v.2h-2.6v-1.4h0c-.2.5-.7,1.6-2.1,1.6s-3.5-1.7-3.5-3.7,1.6-3.6,3.4-3.6,1.9.7,2.2,1.5h0v-5.7h-1.2v-.2h0ZM118,50.8c1.8,0,2.1-1.7,2.1-3.1s-.1-2.4-.6-3c-.3-.4-.8-.7-1.6-.7-1.5,0-1.8,1.2-1.8,3.2s.1,3.7,1.9,3.7Z"/>
    <path class="st1" d="M125.3,47.8c-.6-.4-.9-1-.9-1.7,0-1.5,1.6-2.4,2.9-2.4s1.7.5,2,.8c.2-.4.7-.8,1.4-.8s.9.1.9.7-.3.6-.6.6c-.6,0-.4-.8-.9-.8s-.5.2-.6.5c.2.2.6.7.6,1.5,0,1.3-1.4,2.2-2.9,2.2s-1.3-.3-1.6-.4c-.5.2-1.1.5-1.1,1.2s.5.8,1.1.8h2.5c1.5,0,2.4.7,2.4,2.2s-1.8,3.2-3.6,3.2-2.9-.8-2.9-1.9,1-1.8,1.9-2.2h0c-1.4,0-2.1-.4-2.1-1.5s1-1.7,1.5-1.9h0ZM126.2,51.3c-.6.3-1.2.7-1.2,1.8s1.2,2,2.2,2c1.5,0,2.6-1,2.6-2.1s-.7-1.7-1.8-1.7h-1.7ZM127.3,43.9c-1.1,0-1.7.6-1.7,2.1s.3,2.1,1.7,2.1,1.5-.7,1.5-2.1-.1-2.1-1.6-2.1h0Z"/>
    <path class="st1" d="M131.9,50.5h1.2v-6.4h-1.2v-.2h2.6v6.6h1.2v.2h-3.8v-.2ZM133.8,39.3c.5,0,.9.4.9.8s-.4.8-.9.8-.9-.4-.9-.8.4-.8.9-.8Z"/>
    <path class="st1" d="M136.6,50.5h1.2v-6.4h-1.2v-.2h2.6v1.7h0c.3-.6.9-1.9,2.8-1.9s2.4.7,2.4,2.2v4.7h1.2v.2h-3.8v-.2h1.2v-5.2c0-.8-.4-1.4-1.2-1.4-1.4,0-2.5,1.3-2.5,3v3.6h1.2v.2h-3.8v-.2h0Z"/>
    <path class="st1" d="M148.2,47.8c-.6-.4-.9-1-.9-1.7,0-1.5,1.6-2.4,2.9-2.4s1.7.5,2,.8c.2-.4.7-.8,1.4-.8s.9.1.9.7-.3.6-.6.6c-.6,0-.4-.8-.9-.8s-.5.2-.6.5c.2.2.6.7.6,1.5,0,1.3-1.4,2.2-2.9,2.2s-1.3-.3-1.6-.4c-.5.2-1.1.5-1.1,1.2s.5.8,1.1.8h2.5c1.5,0,2.4.7,2.4,2.2s-1.8,3.2-3.6,3.2-2.9-.8-2.9-1.9,1-1.8,1.9-2.2h0c-1.4,0-2.1-.4-2.1-1.5s1-1.7,1.5-1.9h0ZM149.1,51.3c-.6.3-1.2.7-1.2,1.8s1.2,2,2.2,2c1.5,0,2.6-1,2.6-2.1s-.7-1.7-1.8-1.7h-1.7ZM150.1,43.9c-1.1,0-1.6.6-1.6,2.1s.3,2.1,1.7,2.1,1.5-.7,1.5-2.1-.1-2.1-1.6-2.1h0Z"/>
    <path class="st1" d="M161,46.8c0,.2,0,.4,0,.8,0,1.4.2,3.2,2.1,3.2s2.3-1.3,2.5-1.8h.2c-.1.5-.6,2-2.7,2s-3.7-1.4-3.7-3.6,1.6-3.7,3.6-3.7,2.9.8,2.9,3.1h-4.9,0ZM164.3,46.6c0-.3,0-.5,0-.8,0-1.4-.6-1.8-1.4-1.8-1.4,0-1.8,1.3-1.9,2.7h3.3Z"/>
    <path class="st1" d="M171.9,39.2h2.6v11.3h1.2v.2h-2.6v-1.4h0c-.2.5-.7,1.6-2.1,1.6s-3.5-1.7-3.5-3.7,1.6-3.6,3.4-3.6,1.9.7,2.2,1.5h0v-5.7h-1.2v-.2h0ZM171,50.8c1.8,0,2.1-1.7,2.1-3.1s-.1-2.4-.6-3c-.3-.4-.8-.7-1.6-.7-1.5,0-1.8,1.2-1.8,3.2s.1,3.7,1.9,3.7h0Z"/>
    <path class="st1" d="M185.3,50.8h-2.6v-1.6h0c-.4.9-1,1.8-2.4,1.8s-1.4-.2-1.7-.5c-.3-.2-.8-.6-.8-1.9v-4.5h-1.2v-.2h2.6v4.9c0,1.1.3,2,1.4,2s2.1-1.2,2.1-2.9v-3.7h-1.2v-.2h2.6v6.6h1.2v.2h0Z"/>
    <path class="st1" d="M192.8,49c-.1.5-.6,2-2.7,2s-3.7-.9-3.7-3.6,1.7-3.7,3.7-3.7,2.6.5,2.6,1.8-.3.8-.8.8-.8-.1-.8-.5.2-.8.2-1.1c0-.5-.6-.8-1.2-.8-.9,0-2.1.2-2.1,3.5s.4,3.3,2.1,3.3,2.3-1.3,2.5-1.8h.2s0,0,0,0Z"/>
    <path class="st1" d="M201,50.6c-.3.2-.7.4-1.2.4-1,0-1.4-.5-1.6-1.2h0c-.2.4-.5,1.2-2.1,1.2s-2.1-.9-2.1-1.5c0-1.5,1.3-1.7,2.5-2,1.4-.5,1.8-.6,1.8-1.8s-.2-1.7-1.2-1.7-1.2.2-1.2.8.1.8.1.9c0,.3-.2.5-.6.5-.7,0-.8-.3-.8-.7,0-.9.9-1.8,2.5-1.8s2.6,1.1,2.6,2.2v4c0,.6.2.8.6.8s.5,0,.7-.3v.2c.1,0,0,0,0,0ZM198.2,46.9h0c0,.1-.2.3-.5.4l-1.2.5c-.7.3-1.1.8-1.1,1.5s.2,1.4,1.2,1.4c1.4,0,1.6-1.4,1.6-2.2v-1.6h0Z"/>
    <path class="st1" d="M201.3,43.9h1.2v-2.1c.2,0,.3.1.6.1s.5,0,.8-.2v2.2h2.3v.2h-2.3v5.2c0,1.2.5,1.4,1,1.4.8,0,1.2-.6,1.3-1.3h.2c-.1.6-.5,1.6-1.8,1.6s-2.1-.7-2.1-1.8v-5.1h-1.2v-.2h0Z"/>
    <path class="st1" d="M206.8,50.5h1.2v-6.4h-1.2v-.2h2.6v6.6h1.2v.2h-3.8v-.2ZM208.7,39.3c.5,0,.9.4.9.8s-.4.8-.9.8-.9-.4-.9-.8.4-.8.9-.8Z"/>
    <path class="st1" d="M215.6,43.7c1.7,0,3.7,1.5,3.7,3.7s-1.9,3.7-3.7,3.7-3.7-1.6-3.7-3.7,2-3.7,3.7-3.7ZM215.6,50.8c1.1,0,2.1-.4,2.1-3.4s-.7-3.4-2.1-3.4-2.1.9-2.1,3.4,1,3.4,2.1,3.4Z"/>
    <path class="st1" d="M220.4,50.5h1.2v-6.4h-1.2v-.2h2.6v1.7h0c.3-.6.9-1.9,2.8-1.9s2.4.7,2.4,2.2v4.7h1.2v.2h-3.8v-.2h1.2v-5.2c0-.8-.4-1.4-1.2-1.4-1.4,0-2.6,1.3-2.6,3v3.6h1.2v.2h-3.8v-.2h0Z"/>
    <path class="st1" d="M234.2,43.9h3.9v.2h-1.3l1.8,5,1.7-4-.4-1h-.7v-.2h3.2v.2h-1.1l1.9,5,2-5h-1.5v-.2h2.6v.2h-.9l-2.9,7.2-2.2-5.8-2.4,5.8-2.6-7.2h-1.1v-.2h0Z"/>
    <path class="st1" d="M246.6,50.5h1.2v-6.4h-1.2v-.2h2.6v6.6h1.2v.2h-3.8v-.2ZM248.4,39.3c.5,0,.9.4.9.8s-.4.8-.9.8-.9-.4-.9-.8.4-.8.9-.8Z"/>
    <path class="st1" d="M251.1,43.9h1.2v-2.1c.2,0,.3.1.6.1s.5,0,.8-.2v2.2h2.3v.2h-2.3v5.2c0,1.2.5,1.4,1,1.4.8,0,1.2-.6,1.3-1.3h.2c-.1.6-.5,1.6-1.8,1.6s-2.1-.7-2.1-1.8v-5.1h-1.2v-.2h0Z"/>
    <path class="st1" d="M256.6,50.5h1.2v-11.1h-1.2v-.2h2.6v6.3h0c.2-.6,1-1.8,2.7-1.8s2.4.7,2.4,2.2v4.7h1.2v.2h-3.8v-.2h1.2v-5.2c0-.8-.4-1.4-1.2-1.4-1.4,0-2.5,1.3-2.5,3v3.6h1.2v.2h-3.8v-.2h0Z"/>
    <path class="st1" d="M270.8,55h1.2v-10.9h-1.2v-.2h2.6v1.3h0c.3-.9,1.1-1.5,2.2-1.5,1.8,0,3.4,1.7,3.4,3.6s-1.6,3.7-3.5,3.7-2-1.1-2.1-1.5h0v5.6h1.2v.2h-3.8v-.2h0ZM275.6,43.9c-.8,0-1.3.3-1.6.7-.5.6-.6,1.3-.6,3s.3,3.1,2.1,3.1,1.9-1.4,1.9-3.7-.4-3.2-1.8-3.2Z"/>
    <path class="st1" d="M289,50.8h-2.6v-1.6h0c-.4.9-1,1.8-2.5,1.8s-1.4-.2-1.7-.5c-.3-.2-.8-.6-.8-1.9v-4.5h-1.2v-.2h2.6v4.9c0,1.1.3,2,1.4,2s2.1-1.2,2.1-2.9v-3.7h-1.2v-.2h2.6v6.6h1.2v.2h0Z"/>
    <path class="st1" d="M289.8,50.5h1.2v-6.4h-1.2v-.2h2.6v1.6h0c.2-.6.8-1.8,2.1-1.8s1.4.7,1.4,1.3-.4.9-.8.9-.7-.2-.7-.5.2-.4.2-.9-.2-.5-.6-.5c-.7,0-1.7,1.1-1.7,2.8v3.7h1.4v.2h-4v-.2h0Z"/>
    <path class="st1" d="M296.3,55h1.2v-10.9h-1.2v-.2h2.6v1.3h0c.3-.9,1.1-1.5,2.2-1.5,1.8,0,3.4,1.7,3.4,3.6s-1.6,3.7-3.5,3.7-2-1.1-2.1-1.5h0v5.6h1.2v.2h-3.8v-.2h0ZM301.1,43.9c-.8,0-1.3.3-1.6.7-.5.6-.6,1.3-.6,3s.3,3.1,2.1,3.1,1.9-1.4,1.9-3.7-.4-3.2-1.8-3.2Z"/>
    <path class="st1" d="M309.8,43.7c1.7,0,3.7,1.5,3.7,3.7s-1.9,3.7-3.7,3.7-3.7-1.6-3.7-3.7,2-3.7,3.7-3.7ZM309.8,50.8c1.1,0,2.1-.4,2.1-3.4s-.7-3.4-2.1-3.4-2.1.9-2.1,3.4,1,3.4,2.1,3.4Z"/>
    <path class="st1" d="M315.2,48.5h.2c.3,1,.9,2.2,2.5,2.2s1.3-.4,1.3-1.3-.5-1.1-1-1.2l-1.2-.4c-.7-.2-1.6-.5-1.6-2s1-2.1,2.3-2.1,1.1.3,1.5.3.2,0,.3-.1h.2v1.8h-.2c-.3-1-.7-1.8-1.8-1.8s-1.6.5-1.6,1.3.5,1,1.4,1.3l1.2.4c1,.3,1.7.9,1.7,1.9s-.9,2.3-2.5,2.3-1.5-.5-2-.5-.3.1-.4.2h-.2v-2.2h0Z"/>
    <path class="st1" d="M323.4,46.8c0,.2,0,.4,0,.8,0,1.4.2,3.2,2.1,3.2s2.3-1.3,2.5-1.8h.2c-.1.5-.6,2-2.7,2s-3.7-1.4-3.7-3.6,1.6-3.7,3.6-3.7,3,.8,3,3.1h-4.9,0ZM326.7,46.6c0-.3,0-.5,0-.8,0-1.4-.6-1.8-1.4-1.8-1.4,0-1.8,1.3-1.9,2.7h3.3Z"/>
  </g>
</svg>