<?xml version="1.0" encoding="UTF-8"?>
<svg id="Layer_2" data-name="Layer 2" xmlns="http://www.w3.org/2000/svg" viewBox="0 0 88.51 84.44">
  <defs>
    <style>
      .cls-1 {
        fill: #d2232a;
      }

      .cls-2 {
        fill: #fff;
      }

      .cls-3 {
        fill: none;
      }
    </style>
  </defs>
  <g id="Layer_1-2" data-name="Layer 1">
    <path class="cls-1" d="M44.25,84.44c24.44,0,44.25-18.9,44.25-42.22S68.7,0,44.25,0,0,18.9,0,42.22s19.81,42.22,44.25,42.22"/>
    <path class="cls-3" d="M44.25,84.44c24.44,0,44.25-18.9,44.25-42.22S68.7,0,44.25,0,0,18.9,0,42.22s19.81,42.22,44.25,42.22Z"/>
    <g>
      <path class="cls-2" d="M31.51,41.7h-2.4v6.81h-.36c-.42-.45-.6-.57-1.2-.57-1.44,0-2.73,1.86-6.51,1.86-2.82,0-4.92-.9-6.96-2.94s-3.48-4.74-3.48-8.13c0-4.59,2.4-7.2,3.45-8.25,1.8-1.8,4.11-3.03,7.05-3.03s3.63,1.17,5.1,1.17c.78,0,1.05-.24,1.35-.63h.45v6h-.33c-.33-2.07-1.59-6.12-6.6-6.12-5.97,0-7.02,5.55-7.02,10.86,0,3.63.51,7.29,2.64,9.21,1.2,1.08,2.31,1.44,4.35,1.44,2.49,0,5.19-1.62,5.19-5.16v-2.52h-3.87v-.42h9.15v.42Z"/>
      <path class="cls-2" d="M33.01,48.93h2.31v-12.03h-2.31v-.42h2.31v-1.59c0-2.79.57-3.99,1.35-4.98,1.05-1.32,2.7-2.46,4.44-2.46,2.61,0,3.72,1.71,3.72,2.79,0,.75-.39,1.53-1.44,1.53-.51,0-1.38-.15-1.38-.96,0-.69.57-1.14.57-1.83,0-.9-.9-1.11-1.65-1.11-1.65,0-3.03,1.38-3.03,4.44v4.17h3.72v.42h-3.72v12.03h2.73v.42h-7.62v-.42Z"/>
      <path class="cls-2" d="M46.54,41.91c0,.39-.03.78-.03,1.41,0,2.67.42,6.03,3.96,6.03s4.32-2.43,4.62-3.39l.45.09c-.27.87-1.08,3.72-5.1,3.72s-6.93-2.7-6.93-6.78c0-3.54,2.97-6.9,6.75-6.9,2.22,0,5.52,1.44,5.52,5.82h-9.24ZM52.72,41.49c.06-.57.06-1.02.06-1.53,0-2.7-1.08-3.45-2.64-3.45-2.7,0-3.39,2.37-3.57,4.98h6.15Z"/>
    </g>
    <path class="cls-2" d="M73.01,42.88c.94,0,1.75.33,2.44.98s1.04,1.48,1.04,2.46-.34,1.78-1.02,2.46-1.5,1.02-2.46,1.02-1.75-.34-2.43-1.02-1.02-1.5-1.02-2.46.34-1.75,1.02-2.43,1.49-1.02,2.43-1.02Z"/>
  </g>
</svg>